<svg id="Group_2" data-name="Group 2" xmlns="http://www.w3.org/2000/svg" width="903.8" height="688.603" viewBox="0 0 903.8 688.603">
  <path id="Path_1" data-name="Path 1" d="M835.33,0H68.47C30.65,0,0,33.49,0,74.81V389c0,41.32,30.65,74.81,68.47,74.81H588.9c43.8,0,85.79,19.02,116.75,52.87L854.29,679.25c18.27,19.98,49.51,5.83,49.51-22.43V74.81C903.8,33.49,873.15,0,835.33,0Z" fill="#f58943" fill-rule="evenodd"/>
  <g id="Group_1" data-name="Group 1">
    <path id="Path_2" data-name="Path 2" d="M86.08,349.68V156.98a16.145,16.145,0,0,1,16.14-16.14h57.35a16.145,16.145,0,0,1,16.14,16.14v192.7a16.145,16.145,0,0,1-16.14,16.14H102.22a16.145,16.145,0,0,1-16.14-16.14Zm154.69,16.14a16.145,16.145,0,0,1-16.14-16.14V236.87q0-11.43-6.86-18.06t-17.38-6.63a27.833,27.833,0,0,0-13.03,2.97,20.232,20.232,0,0,0-8.69,8.46,27.4,27.4,0,0,0-2.97,13.26l-34.75-12.8q0-27.435,12.12-47.1a81.08,81.08,0,0,1,32.7-30.18q20.58-10.515,46.64-10.52a79.672,79.672,0,0,1,41.38,10.97,80.762,80.762,0,0,1,29.49,30.41q10.98,19.44,10.97,45.96V349.68a16.145,16.145,0,0,1-16.14,16.14H240.76Zm138.56,0a16.145,16.145,0,0,1-16.14-16.14V236.87q0-11.43-6.86-18.06t-17.38-6.63a27.833,27.833,0,0,0-13.03,2.97,20.232,20.232,0,0,0-8.69,8.46,27.4,27.4,0,0,0-2.97,13.26l-52.59.46q0-31.545,12.58-54.19a86.245,86.245,0,0,1,34.98-34.75q22.395-12.1,51.22-12.12,26.97,0,47.79,11.43a82.044,82.044,0,0,1,32.7,32.92q11.88,21.5,11.89,51.67V349.68a16.145,16.145,0,0,1-16.14,16.14H379.34Z" fill="#fff"/>
    <path id="Path_3" data-name="Path 3" d="M535.12,119.81q-19.665,0-32.7-13.49T489.39,73.17q0-19.665,13.03-33.15t32.7-13.49c13.12,0,24.39,4.5,32.92,13.49s12.8,20.05,12.8,33.15-4.27,24.16-12.8,33.15S548.53,119.81,535.12,119.81ZM490.31,349.69V156.99a16.145,16.145,0,0,1,16.14-16.14H563.8a16.145,16.145,0,0,1,16.14,16.14v192.7a16.145,16.145,0,0,1-16.14,16.14H506.45A16.145,16.145,0,0,1,490.31,349.69Z" fill="#fff"/>
    <path id="Path_4" data-name="Path 4" d="M617.03,340.53l75.85-110.06,50.3,53.5L698.5,358.02a16.136,16.136,0,0,1-13.82,7.8H630.32a16.141,16.141,0,0,1-13.29-25.3Zm136.65,16.89-38.85-71.16-21.04-11.43L620.96,165.96a16.138,16.138,0,0,1,13.41-25.11h62.64a16.148,16.148,0,0,1,14.17,8.41l39.31,72.07,20.58,10.52L843.2,340.78a16.141,16.141,0,0,1-13.46,25.05h-61.9a16.14,16.14,0,0,1-14.17-8.41Zm11.91-82.59-50.3-53.5,41.09-72.31a16.144,16.144,0,0,1,14.03-8.17H825a16.135,16.135,0,0,1,13.41,25.11L765.58,274.83Z" fill="#fff"/>
  </g>
  <path id="Path_5" data-name="Path 5" d="M863.55,537.97H793.98c-16.69,0-25.04,20.18-13.24,31.98l69.57,69.57c11.8,11.8,31.98,3.44,31.98-13.25V556.7a18.729,18.729,0,0,0-18.73-18.73Z" fill="#fff" fill-rule="evenodd"/>
</svg>
